<svg xmlns="http://www.w3.org/2000/svg" width="189" height="189" viewBox="0 0 189 189">
  <g id="Brain_Processing" data-name="Brain Processing" transform="translate(0.058)">
    <circle id="Ellipse_1" data-name="Ellipse 1" cx="94.5" cy="94.5" r="94.5" transform="translate(-0.058)" fill="#1d1f3d"/>
    <g id="brain-process" transform="translate(32.878 38.694)">
      <path id="Pfad_12" data-name="Pfad 12" d="M133.811,202.151a11.053,11.053,0,0,0,11.054-10.958V99.421a8.8,8.8,0,1,0-16.58,4.144c.486.3.949.618,1.411.96a2.411,2.411,0,1,1-2.871,3.874,15.416,15.416,0,0,0-22.5,20.111,2.408,2.408,0,1,1-4.169,2.413c-.089-.155-.168-.317-.254-.475a10.6,10.6,0,0,0-.975.568,10.334,10.334,0,0,0-.643,16.75,20.106,20.106,0,0,1,9.144-2.193,2.408,2.408,0,1,1,0,4.817,15.413,15.413,0,1,0,0,30.823,2.409,2.409,0,0,1,2.408,2.408,2.327,2.327,0,0,1-2.313,2.408,18.58,18.58,0,0,1-2.4-.16v3.542a10.885,10.885,0,1,0,21.77,0,2.39,2.39,0,1,1,4.78,0,15.676,15.676,0,0,1-4.2,10.748,11.119,11.119,0,0,0,6.334,1.993ZM120.2,112.739a9.108,9.108,0,0,1,9.867,3.816,4.3,4.3,0,0,0,3.91-1.2,2.408,2.408,0,1,1,3.443,3.368,9.073,9.073,0,0,1-5.848,2.709,9.122,9.122,0,0,1-1.129,4.542,2.409,2.409,0,1,1-4.219-2.325,4.3,4.3,0,0,0-4.826-6.24,2.409,2.409,0,1,1-1.2-4.666ZM109.689,142a2.4,2.4,0,0,1-1.682-.687,9.121,9.121,0,0,1-1.524-1.963c-.03.016-.06.034-.091.05a2.408,2.408,0,0,1-2.109-4.33,4.307,4.307,0,0,0,2.273-4.929,2.408,2.408,0,1,1,4.664-1.2,9.116,9.116,0,0,1-1.005,6.922,4.29,4.29,0,0,0,1.157,2.007,2.408,2.408,0,0,1-1.684,4.13Zm20,35.545a12.83,12.83,0,0,1-10.132,2.016,12.83,12.83,0,0,1-2.9,7.325,2.408,2.408,0,1,1-3.716-3.064,8.063,8.063,0,0,0,1.566-7.184,1.484,1.484,0,0,1-.066-.23,8.043,8.043,0,0,0-2.024-3.394,2.408,2.408,0,0,1,3.4-3.407,12.862,12.862,0,0,1,2.966,4.616,8.037,8.037,0,0,0,8.14-.624,2.408,2.408,0,1,1,2.764,3.945Zm.574-24.52a6.208,6.208,0,0,0-3.366,6.342,2.409,2.409,0,1,1-4.777.629,11.03,11.03,0,0,1,5.977-11.276c.094-.047.188-.089.282-.133a6.2,6.2,0,0,0-.944-6.094,2.408,2.408,0,1,1,3.757-3.013,10.972,10.972,0,0,1,2.347,8.075,11.081,11.081,0,0,1,5.956,2.07,2.408,2.408,0,1,1-2.816,3.907,6.219,6.219,0,0,0-6.417-.508Zm0,0" transform="translate(-91.807 -90.702)" fill="#ffc1ad"/>
      <path id="Pfad_13" data-name="Pfad 13" d="M285.686,186a45.135,45.135,0,0,0,10.743-11.279,2.413,2.413,0,0,1,2.074-1.071l7.913.232,5-12.949-5.928-5.116a2.407,2.407,0,0,1-.814-2.134,50.658,50.658,0,0,0-.4-15.662,2.408,2.408,0,0,1,.7-2.171l5.718-5.483-5.574-12.739-7.918.582a2.409,2.409,0,0,1-2.112-.971A45.156,45.156,0,0,0,283.8,106.5a2.406,2.406,0,0,1-1.071-2.074l.232-7.913-12.951-5L264.9,97.444a2.527,2.527,0,0,1-2.2.815A51.622,51.622,0,0,0,253,97.932v17.3c1.2-.086,1.983-.129,2.943-.129a31.819,31.819,0,1,1-.017,63.639c-.96,0-1.722-.045-2.926-.13V195.83a39.991,39.991,0,0,0,11.845-.641,2.72,2.72,0,0,1,.466-.041,2.448,2.448,0,0,1,1.754.742l5.491,5.716,12.742-5.572-.58-7.918a2.412,2.412,0,0,1,.972-2.112Zm0,0" transform="translate(-188.298 -91.189)" fill="#ffc1ad"/>
      <path id="Pfad_14" data-name="Pfad 14" d="M283.009,189.295a27.091,27.091,0,0,0-27.069-27c-.963,0-1.739.056-2.943.157V216.14c1.2.1,1.982.158,2.943.158a27.092,27.092,0,0,0,27.069-27Zm0,0" transform="translate(-188.299 -133.558)" fill="#ffc1ad"/>
    </g>
  </g>
</svg>
