<svg xmlns="http://www.w3.org/2000/svg" width="1994.613" height="1113" viewBox="0 0 1994.613 1113">
  <g id="Background" transform="translate(71 170)">
    <circle id="Ellipse_2" data-name="Ellipse 2" cx="198.5" cy="198.5" r="198.5" transform="translate(-71 546)" fill="rgba(255,193,173,0.1)"/>
    <path id="Pfad_1" data-name="Pfad 1" d="M0,0S82.011,471.659,218.156,471.659,348.4,22.549,405.123,78.923,418.277,750.2,659.4,682.266,736.5,86.729,831.634,86.729s-9.842,448.1,195.2,465.444S1099,99.738,1154.773,86.729s-22.964,770.44,250.966,715.512,101.7-731.412,175.512-715.512-23.985,598.428,190.9,595.537S1950.32,86.729,1950.32,86.729V0Z" transform="translate(-29.087)" fill="#161834"/>
    <circle id="Ellipse_4" data-name="Ellipse 4" cx="198.5" cy="198.5" r="198.5" transform="translate(1128 523)" fill="rgba(255,193,173,0.1)"/>
    <circle id="Ellipse_3" data-name="Ellipse 3" cx="198.5" cy="198.5" r="198.5" transform="translate(1431 -170)" fill="rgba(181,250,210,0.1)"/>
    <circle id="Ellipse_5" data-name="Ellipse 5" cx="198.5" cy="198.5" r="198.5" transform="translate(501 124)" fill="rgba(181,250,210,0.1)"/>
  </g>
</svg>
