<svg xmlns="http://www.w3.org/2000/svg" width="188" height="189" viewBox="0 0 188 189">
  <g id="Mental_Health" data-name="Mental Health" transform="translate(-0.096)">
    <ellipse id="Ellipse_1" data-name="Ellipse 1" cx="94" cy="94.5" rx="94" ry="94.5" transform="translate(0.096)" fill="#1d1f3d"/>
    <g id="passion" transform="translate(39.067 30.872)">
      <path id="Pfad_2" data-name="Pfad 2" d="M229.692,349.7h-9.409l-5.437,9.984,8.667,30.322h1.845l9.3-31.183Z" transform="translate(-169.884 -263.136)" fill="#ffc1ad"/>
      <path id="Pfad_3" data-name="Pfad 3" d="M188.464,297.6l2.4-4.4V283.55a40.283,40.283,0,0,1-7.2-2.748Z" transform="translate(-146.413 -211.242)" fill="#ffc1ad"/>
      <path id="Pfad_4" data-name="Pfad 4" d="M335.9,324.112a54.212,54.212,0,0,0-29.673-48.28l-17.5,58.652h31.336Z" transform="translate(-225.533 -207.61)" fill="#ffc1ad"/>
      <path id="Pfad_5" data-name="Pfad 5" d="M49.17,286.568A53.711,53.711,0,0,0,33.334,324.8L49.17,335.171h30.1l-16.7-58.425A54.212,54.212,0,0,0,49.17,286.568Z" transform="translate(-33.334 -208.297)" fill="#ffc1ad"/>
      <path id="Pfad_6" data-name="Pfad 6" d="M298.724,284.53v9.61l2.01,3.691,4.709-15.783A40.3,40.3,0,0,1,298.724,284.53Z" transform="translate(-232.963 -212.178)" fill="#ffc1ad"/>
      <path id="Pfad_7" data-name="Pfad 7" d="M252.487,297.214q-2.32.176-4.685.177-2.486,0-4.924-.2v8.358h9.609Z" transform="translate(-192.692 -223.559)" fill="#ffc1ad"/>
      <path id="Pfad_8" data-name="Pfad 8" d="M223.1,121.569l9.936-9.935A3.276,3.276,0,1,0,228.4,107l-5.267,5.267L217.864,107a3.276,3.276,0,1,0-4.634,4.633Z" transform="translate(-167.949 -79.771)" fill="#ffc1ad"/>
      <path id="Pfad_9" data-name="Pfad 9" d="M154.891,66.737A33.369,33.369,0,1,0,121.64,33.368,33.348,33.348,0,0,0,154.891,66.737ZM139.735,21.985a10.721,10.721,0,0,1,15.157-.043,10.767,10.767,0,0,1,15.156,15.3L154.837,52.5,139.725,37.229a10.812,10.812,0,0,1,.01-15.243Z" transform="translate(-99.709 0)" fill="#ffc1ad"/>
    </g>
  </g>
</svg>
